<?xml version="1.0" encoding="utf-8"?>
<!-- Generator: Adobe Illustrator 18.1.1, SVG Export Plug-In . SVG Version: 6.00 Build 0)  -->
<svg version="1.1" id="Layer_1" xmlns="http://www.w3.org/2000/svg" x="0px"
     y="0px"
     viewBox="-703 285 512 512" enable-background="new -703 285 512 512" xml:space="preserve">
<rect x="-703" y="285" fill="#F94877" width="512" height="512"/>
    <g>
	<g>
		<path fill="#FFFFFF" d="M-360.6,381c0,0-147.1,0-170.6,0c-23.5,0-30.4,17.7-30.4,28.9s0,271.1,0,271.1c0,12.6,6.7,17.2,10.6,18.7
			c3.8,1.6,14.2,2.8,20.5-4.3c0,0,80.6-93.5,81.9-94.8c2.1-2.1,2.1-2.1,4.2-2.1c4.2,0,35.2,0,52.1,0c21.9,0,25.4-15.6,27.7-24.7
			c1.9-7.7,23.3-117.1,30.3-151.7C-328.8,395.2-335.6,381-360.6,381z M-364.7,573.6c1.9-7.7,23.3-117.1,30.3-151.7 M-370.6,427.2
			l-7.2,37.2c-0.8,4-5.9,8.3-10.7,8.3c-4.7,0-66.4,0-66.4,0c-7.4,0-12.8,5.2-12.8,12.6v8.2c0,7.5,5.3,12.8,12.9,12.8
			c0,0,51.1,0,56.4,0c5.3,0,10.5,5.8,9.3,11.4c-1.1,5.6-6.5,33.7-7.2,36.7c-0.6,3-4.2,8.4-10.5,8.4c-5.2,0-46,0-46,0
			c-8.4,0-10.9,1.1-16.6,8.1c-5.6,7-56.1,67.6-56.1,67.6c-0.5,0.6-1,0.5-1-0.2V426.7c0-4.7,4.1-10.4,10.3-10.4c0,0,131.5,0,136.8,0
			C-374.1,416.2-369.4,421-370.6,427.2z"/>
	</g>
</g>
</svg>
