<?xml version="1.0" encoding="utf-8"?>
<!-- Generator: Adobe Illustrator 21.1.0, SVG Export Plug-In . SVG Version: 6.00 Build 0)  -->
<svg version="1.1" id="Google_My_Business_copy" xmlns="http://www.w3.org/2000/svg"
     x="0px" y="0px" width="512px" height="512px" viewBox="0 0 512 512" style="enable-background:new 0 0 512 512;"
     xml:space="preserve">
<style type="text/css">
	.st0{fill:url(#SVGID_1_);}
	.st1{fill:#FFFFFF;}
</style>
    <radialGradient id="SVGID_1_" cx="148.8068" cy="510.7332" r="516.1538" gradientUnits="userSpaceOnUse">
	<stop offset="0" style="stop-color:#FFD676"/>
        <stop offset="0.2463" style="stop-color:#F2A454"/>
        <stop offset="0.3793" style="stop-color:#F05C3C"/>
        <stop offset="0.6995" style="stop-color:#C22F86"/>
        <stop offset="0.9568" style="stop-color:#6666AD"/>
        <stop offset="0.9852" style="stop-color:#5C6CB2"/>
</radialGradient>
    <rect class="st0" width="512" height="512"/>
    <g>
	<path class="st1" d="M256,124.8c42.7,0,47.8,0.2,64.7,0.9c15.6,0.7,24.1,3.3,29.7,5.5c7.5,2.9,12.8,6.4,18.4,12
		c5.6,5.6,9.1,10.9,12,18.4c2.2,5.6,4.8,14.1,5.5,29.7c0.8,16.9,0.9,21.9,0.9,64.7s-0.2,47.8-0.9,64.7c-0.7,15.6-3.3,24.1-5.5,29.7
		c-2.9,7.5-6.4,12.8-12,18.4c-5.6,5.6-10.9,9.1-18.4,12c-5.6,2.2-14.1,4.8-29.7,5.5c-16.9,0.8-21.9,0.9-64.7,0.9s-47.8-0.2-64.7-0.9
		c-15.6-0.7-24.1-3.3-29.7-5.5c-7.5-2.9-12.8-6.4-18.4-12c-5.6-5.6-9.1-10.9-12-18.4c-2.2-5.6-4.8-14.1-5.5-29.7
		c-0.8-16.9-0.9-21.9-0.9-64.7s0.2-47.8,0.9-64.7c0.7-15.6,3.3-24.1,5.5-29.7c2.9-7.5,6.4-12.8,12-18.4c5.6-5.6,10.9-9.1,18.4-12
		c5.6-2.2,14.1-4.8,29.7-5.5C208.2,125,213.3,124.8,256,124.8 M256,96c-43.5,0-48.9,0.2-66,1c-17,0.8-28.7,3.5-38.8,7.4
		c-10.5,4.1-19.4,9.6-28.3,18.5c-8.9,8.9-14.4,17.8-18.5,28.3c-4,10.2-6.7,21.8-7.4,38.8c-0.8,17.1-1,22.5-1,66
		c0,43.5,0.2,48.9,1,66c0.8,17,3.5,28.7,7.4,38.8c4.1,10.5,9.6,19.4,18.5,28.3c8.9,8.9,17.8,14.4,28.3,18.5
		c10.2,4,21.8,6.7,38.8,7.4c17.1,0.8,22.5,1,66,1s48.9-0.2,66-1c17-0.8,28.7-3.5,38.8-7.4c10.5-4.1,19.4-9.6,28.3-18.5
		c8.9-8.9,14.4-17.8,18.5-28.3c4-10.2,6.7-21.8,7.4-38.8c0.8-17.1,1-22.5,1-66s-0.2-48.9-1-66c-0.8-17-3.5-28.7-7.4-38.8
		c-4.1-10.5-9.6-19.4-18.5-28.3c-8.9-8.9-17.8-14.4-28.3-18.5c-10.2-4-21.8-6.7-38.8-7.4C304.9,96.2,299.5,96,256,96L256,96z"/>
        <path class="st1" d="M256,173.8c-45.4,0-82.2,36.8-82.2,82.2c0,45.4,36.8,82.2,82.2,82.2s82.2-36.8,82.2-82.2
		C338.2,210.6,301.4,173.8,256,173.8z M256,309.3c-29.5,0-53.3-23.9-53.3-53.3c0-29.5,23.9-53.3,53.3-53.3
		c29.5,0,53.3,23.9,53.3,53.3C309.3,285.5,285.5,309.3,256,309.3z"/>
        <circle class="st1" cx="341.4" cy="170.6" r="19.2"/>
</g>
</svg>
