<?xml version="1.0" encoding="utf-8"?>
<!-- Generator: Adobe Illustrator 18.1.1, SVG Export Plug-In . SVG Version: 6.00 Build 0)  -->
<svg version="1.1" id="Layer_1" xmlns="http://www.w3.org/2000/svg" x="0px"
     y="0px"
     viewBox="-703 285 512 512" enable-background="new -703 285 512 512" xml:space="preserve">
<rect x="-703" y="285" fill="#0976B4" width="512" height="512"/>
    <g>
	<rect x="-603.2" y="487.5" fill="#FFFFFF" width="68.6" height="206.5"/>
        <path fill="#FFFFFF" d="M-568.7,459.2c23.9,0,38.8-15.9,38.8-35.7c-0.4-20.2-14.9-35.7-38.3-35.7c-23.4,0-38.8,15.4-38.8,35.7
		c0,19.8,14.9,35.7,37.9,35.7H-568.7L-568.7,459.2z"/>
        <path fill="#FFFFFF" d="M-427.8,517.4c0,0,14.9-34.8,61.8-34.8s79,30.6,79,93s0,118.5,0,118.5h-68.6V583.6c0,0,2.7-46.8-34.8-46.8
		s-37.5,44.6-37.5,44.6v112.7h-68.6V487.5h68.7V517.4z"/>
</g>
</svg>
