<?xml version="1.0" encoding="utf-8"?>
<!-- Generator: Adobe Illustrator 21.1.0, SVG Export Plug-In . SVG Version: 6.00 Build 0)  -->
<svg version="1.1" id="Google_My_Business_copy" xmlns="http://www.w3.org/2000/svg"
     x="0px" y="0px" width="512px" height="512px" viewBox="0 0 512 512" style="enable-background:new 0 0 512 512;"
     xml:space="preserve">
<style type="text/css">
	.st0{fill:#F7F7F7;}
	.st1{fill:#FF0000;}
	.st2{fill:#FFFFFF;}
</style>
    <rect class="st0" width="512" height="512"/>
    <g id="XMLID_184_">
	<path id="XMLID_182_" class="st1" d="M410.3,178.5c-3.7-13.9-14.5-24.8-28.3-28.5c-25-6.7-125-6.7-125-6.7s-100.1,0-125,6.7
		c-13.8,3.7-24.6,14.6-28.3,28.5C97,203.6,97,256,97,256s0,52.4,6.7,77.5c3.7,13.9,14.5,24.8,28.3,28.5c25,6.7,125,6.7,125,6.7
		s100.1,0,125-6.7c13.8-3.7,24.6-14.6,28.3-28.5C417,308.4,417,256,417,256S417,203.6,410.3,178.5z"/>
        <polygon id="XMLID_1355_" class="st2" points="224.3,303.6 307.9,256 224.3,208.4 	"/>
</g>
</svg>
