<?xml version="1.0" encoding="utf-8"?>
<!-- Generator: Adobe Illustrator 21.1.0, SVG Export Plug-In . SVG Version: 6.00 Build 0)  -->
<svg version="1.1" id="Google_My_Business_copy" xmlns="http://www.w3.org/2000/svg"
     x="0px" y="0px" width="512px" height="512px" viewBox="0 0 512 512" style="enable-background:new 0 0 512 512;"
     xml:space="preserve">
<style type="text/css">
	.st0{fill:#BD081C;}
	.st1{fill:#FFFFFF;}
</style>
    <rect x="0" y="0.1" class="st0" width="512" height="512"/>
    <g>
	<path class="st1" d="M177.5,512.1c10.2-16.5,31.1-54.5,36.7-76.2c3-11.6,15.5-59.2,15.5-59.2c8.1,15.5,31.8,28.6,57.1,28.6
		c75.1,0,129.2-69.1,129.2-154.9c0-82.3-67.1-143.8-153.5-143.8C155.1,106.6,98,178.8,98,257.3c0,36.5,19.4,82,50.5,96.5
		c4.7,2.2,7.2,1.2,8.3-3.3c0.8-3.5,5-20.4,6.9-28.2c0.6-2.5,0.3-4.7-1.7-7.1c-10.3-12.5-18.5-35.4-18.5-56.8
		c0-54.9,41.6-108.1,112.4-108.1c61.2,0,104,41.7,104,101.3c0,67.4-34,114-78.3,114c-24.4,0-42.7-20.2-36.9-45
		c7-29.6,20.6-61.5,20.6-82.9c0-19.1-10.3-35.1-31.5-35.1c-25,0-45.1,25.8-45.1,60.5c0,22.1,7.4,37,7.4,37s-24.7,104.3-29.2,123.8
		c-5,21.5-2,68.6,0.2,88.3C173.2,512.1,175.3,512.1,177.5,512.1z"/>
</g>
</svg>
